<svg width="89" height="20" viewBox="0 0 89 20" fill="none" xmlns="http://www.w3.org/2000/svg">
<path d="M23.548 2.248L18.868 19H14.908L11.764 7.072L8.476 19L4.54 19.024L0.028 2.248H3.628L6.58 15.256L9.988 2.248H13.732L16.948 15.184L19.924 2.248H23.548ZM39.1019 12.064C39.1019 12.544 39.0699 12.976 39.0059 13.36H29.2859C29.3659 14.32 29.7019 15.072 30.2939 15.616C30.8859 16.16 31.6139 16.432 32.4779 16.432C33.7259 16.432 34.6139 15.896 35.1419 14.824H38.7659C38.3819 16.104 37.6459 17.16 36.5579 17.992C35.4699 18.808 34.1339 19.216 32.5499 19.216C31.2699 19.216 30.1179 18.936 29.0939 18.376C28.0859 17.8 27.2939 16.992 26.7179 15.952C26.1579 14.912 25.8779 13.712 25.8779 12.352C25.8779 10.976 26.1579 9.768 26.7179 8.728C27.2779 7.688 28.0619 6.888 29.0699 6.328C30.0779 5.768 31.2379 5.488 32.5499 5.488C33.8139 5.488 34.9419 5.76 35.9339 6.304C36.9419 6.848 37.7179 7.624 38.2619 8.632C38.8219 9.624 39.1019 10.768 39.1019 12.064ZM35.6219 11.104C35.6059 10.24 35.2939 9.552 34.6859 9.04C34.0779 8.512 33.3339 8.248 32.4539 8.248C31.6219 8.248 30.9179 8.504 30.3419 9.016C29.7819 9.512 29.4379 10.208 29.3099 11.104H35.6219Z" fill="#3366FF"/>
<path d="M46.4664 8.464V14.896C46.4664 15.344 46.5704 15.672 46.7784 15.88C47.0024 16.072 47.3704 16.168 47.8824 16.168H49.4424V19H47.3304C44.4984 19 43.0824 17.624 43.0824 14.872V8.464H41.4984V5.704H43.0824V2.416H46.4664V5.704H49.4424V8.464H46.4664ZM54.5631 4.12C53.9711 4.12 53.4751 3.936 53.0751 3.568C52.6911 3.184 52.4991 2.712 52.4991 2.152C52.4991 1.592 52.6911 1.128 53.0751 0.759999C53.4751 0.375999 53.9711 0.183999 54.5631 0.183999C55.1551 0.183999 55.6431 0.375999 56.0271 0.759999C56.4271 1.128 56.6271 1.592 56.6271 2.152C56.6271 2.712 56.4271 3.184 56.0271 3.568C55.6431 3.936 55.1551 4.12 54.5631 4.12ZM56.2191 5.704V19H52.8591V5.704H56.2191ZM59.6748 12.352C59.6748 10.976 59.9548 9.776 60.5148 8.752C61.0748 7.712 61.8508 6.912 62.8428 6.352C63.8348 5.776 64.9708 5.488 66.2508 5.488C67.8988 5.488 69.2588 5.904 70.3308 6.736C71.4188 7.552 72.1468 8.704 72.5148 10.192H68.8908C68.6988 9.616 68.3708 9.168 67.9068 8.848C67.4588 8.512 66.8988 8.344 66.2268 8.344C65.2668 8.344 64.5068 8.696 63.9468 9.4C63.3868 10.088 63.1068 11.072 63.1068 12.352C63.1068 13.616 63.3868 14.6 63.9468 15.304C64.5068 15.992 65.2668 16.336 66.2268 16.336C67.5868 16.336 68.4748 15.728 68.8908 14.512H72.5148C72.1468 15.952 71.4188 17.096 70.3308 17.944C69.2428 18.792 67.8828 19.216 66.2508 19.216C64.9708 19.216 63.8348 18.936 62.8428 18.376C61.8508 17.8 61.0748 17 60.5148 15.976C59.9548 14.936 59.6748 13.728 59.6748 12.352ZM83.8483 19L79.3363 13.336V19H75.9763V1.24H79.3363V11.344L83.8003 5.704H88.1683L82.3123 12.376L88.2163 19H83.8483Z" fill="#FF3D71"/>
</svg>
